<svg
	class="astro-a"
	width="495"
	height="623"
	viewBox="0 0 495 623"
	fill="none"
	xmlns="http://www.w3.org/2000/svg"
	aria-hidden="true"
>
	<path
		fill-rule="evenodd"
		clip-rule="evenodd"
		d="M167.2 364.3C83.5 364.3 0 404.8 0 404.8l142-386C146.4 7.3 153 0 162.3 0h170.2c9.3 0 16 7.3 20.2 18.7l142 386s-68-40.6-167.2-40.6l-63-194.8c-2.4-9.4-9.3-15.8-17-15.8s-14.7 6.4-17 15.8l-63 194.8zm-6.3 166c0 0 0 0 0 0h0zm-24.7-118.8c-11.7 39-3.5 93 24.7 118.8l.4-1.4.7-2.6c3.5-16.3 16.8-26.7 33.7-26.2 16.4.5 25 8.8 27.6 27.2 1 7 1 14 1 21v2.2a80 80 0 0 0 12.9 43.6c8 12.5 18.8 22 33.5 28.6l-.4-1.4-.7-2.2c-10.8-33-3-55.6 25.7-75l8.8-5.8 19.2-13c22.6-16.7 36.8-38.7 40.2-67.2a77 77 0 0 0-3.6-34.6l-4.8 3-9.7 5.7c-42 20.6-86.2 23-131.4 16.3-29.2-4.4-57.4-12.2-77.8-37z"
		fill="url(#A)"></path>
	<defs>
	  <linearGradient
		  id="A"
		  x1="247.358"
		  y1="0"
		  x2="247.358"
		  y2="622.479"
		  gradientUnits="userSpaceOnUse"
	  >
	  <stop offset="0" stop-opacity="0.9"></stop>
	  <stop offset="1" stop-opacity="0.2"></stop>
	</linearGradient>
	</defs>
</svg>
